# xmcd
#
# Track frame offsets: 
#        150
#        8788
#        22317
#        40346
#        53584
#        70699
#        86112
#        100231
#        112730
#        125490
#        136598
#        148576
#        159543
#        176015
#        192357
#        207429
#        220803
#        238978
#        262675
#        287087
#
# Disc length: 4178 seconds
#
# Revision: 0
# Processed by: cddbd v1.5.2PL0 Copyright (c) Steve Scherf et al.
# Submitted via: ExactAudioCopy v1.1
#
DISCID=1f105014
DTITLE=アストル・ピアソラ - Astor Piazzolla Best Selection
DYEAR=2013
DGENRE=Tango
TTITLE0=エル・チョクロ
TTITLE1=ネホス・ネグロス
TTITLE2=ラ・クンパルシータ
TTITLE3=ラ・カチーラ
TTITLE4=ラ・マレーバ
TTITLE5=ミ・ノーチェ・トリステ
TTITLE6=ガウチョの嘆き
TTITLE7=恋人なんかいなかった
TTITLE8=夢の中で
TTITLE9=バンドネオンの嘆き
TTITLE10=アルマ・デ・ボエミオ
TTITLE11=淡き光に
TTITLE12=レクエルド (想い出)
TTITLE13=ロカ・ボヘミア
TTITLE14=ボエド
TTITLE15=ノーチェ・デ・アモール (愛の夜)
TTITLE16=悪魔のタンゴ
TTITLE17=悪魔のロマンス
TTITLE18=天使のミロンガ
TTITLE19=天使の復活
EXTD=
EXTT0=
EXTT1=
EXTT2=
EXTT3=
EXTT4=
EXTT5=
EXTT6=
EXTT7=
EXTT8=
EXTT9=
EXTT10=
EXTT11=
EXTT12=
EXTT13=
EXTT14=
EXTT15=
EXTT16=
EXTT17=
EXTT18=
EXTT19=
PLAYORDER=
